<mxfile host="app.diagrams.net" modified="2023-10-20T16:34:00.949Z" agent="Mozilla/5.0 (Windows NT 10.0; Win64; x64) AppleWebKit/537.36 (KHTML, like Gecko) Chrome/116.0.0.0 Safari/537.36" version="22.0.6" etag="jLHBXZ12f2C0nS7WwTtU" type="github">
  <diagram name="第 1 页" id="NdFDGdrc1sy2zUs02xmI">
    <mxGraphModel>
      <root>
        <mxCell id="0" />
        <mxCell id="1" parent="0" />
      </root>
    </mxGraphModel>
  </diagram>
</mxfile>
